<svg id="Capa_1" enable-background="new 0 0 512 512" height="512" viewBox="0 0 512 512" width="512" xmlns="http://www.w3.org/2000/svg"><g><g><g><path d="m382 73v157l10 15-10 15v55c0 8.284 6.716 15 15 15 63.411 0 115-51.589 115-115v-90z" fill="#ffcdbe"/><path d="m512 125v-50c0-41.355-33.645-75-75-75h-40c-8.284 0-15 6.716-15 15v58l65 52z" fill="#ffde55"/></g><circle cx="447" cy="175" fill="#07485e" r="15"/><path d="m412 230h-30v30h30c8.284 0 15-6.716 15-15s-6.716-15-15-15z" fill="#ffbeaa"/></g><g><g><path d="m130 73v157l-10 15 10 15v55c0 8.284-6.716 15-15 15-63.411 0-115-51.589-115-115v-90z" fill="#ffdecf"/><path d="m0 125v-50c0-41.355 33.645-75 75-75h40c8.284 0 15 6.716 15 15v58l-65 52z" fill="#fff68e"/></g><circle cx="65" cy="175" fill="#07485e" r="15"/><path d="m100 230h30v30h-30c-8.284 0-15-6.716-15-15s6.716-15 15-15z" fill="#ffcdbe"/></g><g><path d="m446 512h-380c-8.284 0-15-6.716-15-15v-58.221c0-38.45 25.947-72.223 63.099-82.13l98.036-26.143c1.261-.336 2.56-.506 3.865-.506h80c1.305 0 2.604.17 3.865.506l98.036 26.143c37.151 9.907 63.099 43.68 63.099 82.13v58.221c0 8.284-6.716 15-15 15z" fill="#ff9100"/><path d="m397.901 356.649-98.036-26.143c-1.261-.336-2.56-.506-3.865-.506h-40v182h190c8.284 0 15-6.716 15-15v-58.221c0-38.45-25.947-72.222-63.099-82.13z" fill="#ff6426"/><path d="m256 410c-30.327 0-55-24.673-55-55v-60c0-8.284 6.716-15 15-15h80c8.284 0 15 6.716 15 15v60c0 30.327-24.673 55-55 55z" fill="#ffdecf"/><path d="m296 280h-40v130c30.327 0 55-24.673 55-55v-60c0-8.284-6.716-15-15-15z" fill="#ffcdbe"/><g><path d="m271 51.076-15 13.924-15-13.924c-50.817 7.301-90 51.119-90 103.924v90c0 2.719.739 5.386 2.138 7.717l30 50c2.711 4.518 7.593 7.283 12.862 7.283h120c5.269 0 10.151-2.765 12.862-7.283l30-50c1.398-2.331 2.138-4.999 2.138-7.717v-90c0-52.804-39.183-96.623-90-103.924z" fill="#fff5f5"/><path d="m271 51.076-15 13.924v245h60c5.269 0 10.151-2.765 12.862-7.283l30-50c1.398-2.331 2.138-4.999 2.138-7.717v-90c0-52.804-39.183-96.623-90-103.924z" fill="#dfdef5"/><path d="m256 115c8.284 0 15-6.716 15-15v-48.924c-4.901-.704-9.907-1.076-15-1.076s-10.099.372-15 1.076v48.924c0 8.284 6.716 15 15 15z" fill="#09607d"/><circle cx="296" cy="160" fill="#07485e" r="15"/><circle cx="216" cy="160" fill="#09607d" r="15"/><path d="m276 265h-40c-8.284 0-15-6.716-15-15s6.716-15 15-15h40c8.284 0 15 6.716 15 15s-6.716 15-15 15z" fill="#09607d"/><g fill="#07485e"><path d="m271 100v-48.924c-4.901-.704-9.907-1.076-15-1.076v65c8.284 0 15-6.716 15-15z"/><path d="m291 250c0-8.284-6.716-15-15-15h-20v30h20c8.284 0 15-6.716 15-15z"/></g></g></g></g></svg>